<?xml version="1.0" encoding="UTF-8"?>
<svg version="1.1" xmlns="http://www.w3.org/2000/svg" width="200" height="200">
<path d="M0 0 C0.75055794 -0.00453111 1.50111588 -0.00906223 2.274418 -0.01373065 C4.79084676 -0.02639668 7.30705972 -0.02475287 9.82351685 -0.02310181 C11.62715941 -0.02908567 13.43079941 -0.03589089 15.23443604 -0.04345703 C20.13528586 -0.0611384 25.03606585 -0.0658133 29.93694448 -0.0670886 C34.02743746 -0.06898711 38.11791414 -0.07634407 42.20840085 -0.08343279 C51.8587604 -0.09972237 61.50908263 -0.10460122 71.15945435 -0.10317993 C81.11606553 -0.10197824 91.07246003 -0.1230842 101.02901638 -0.15466726 C109.57605188 -0.18081359 118.12301655 -0.19154792 126.67009175 -0.19026911 C131.77541729 -0.18975901 136.8805503 -0.19546903 141.98583603 -0.21662521 C146.78756751 -0.23597997 151.58892224 -0.236151 156.39066696 -0.22159195 C158.15229339 -0.21949934 159.91394323 -0.22423165 161.67552948 -0.23631287 C164.08214398 -0.25174787 166.48745654 -0.24246983 168.89404297 -0.22705078 C169.58977193 -0.23733791 170.28550089 -0.24762503 171.00231254 -0.25822389 C175.95278337 -0.18821973 178.8026646 1.10335889 182.57400513 4.26742554 C185.1804998 7.69444668 184.85974073 11.55403128 184.84143066 15.69342041 C184.84596178 16.44397835 184.85049289 17.19453629 184.85516131 17.96783841 C184.86782734 20.48426717 184.86618354 23.00048013 184.86453247 25.51693726 C184.87051634 27.32057982 184.87732156 29.12421982 184.8848877 30.92785645 C184.90256906 35.82870627 184.90724397 40.72948626 184.90851927 45.63036489 C184.91041777 49.72085787 184.91777473 53.81133455 184.92486346 57.90182126 C184.94115304 67.55218081 184.94603188 77.20250304 184.9446106 86.85287476 C184.94340891 96.80948594 184.96451486 106.76588044 184.99609792 116.72243679 C185.02224425 125.26947229 185.03297859 133.81643696 185.03169978 142.36351216 C185.03118967 147.4688377 185.03689969 152.57397071 185.05805588 157.67925644 C185.07741063 162.48098792 185.07758166 167.28234265 185.06302261 172.08408737 C185.06093 173.8457138 185.06566232 175.60736364 185.07774353 177.36894989 C185.09317853 179.77556439 185.0839005 182.18087695 185.06848145 184.58746338 C185.07876857 185.28319234 185.0890557 185.9789213 185.09965456 186.69573295 C185.02965039 191.64620378 183.73807178 194.49608501 180.57400513 198.26742554 C177.14698398 200.87392021 173.28739938 200.55316114 169.14801025 200.53485107 C168.39745232 200.53938219 167.64689438 200.5439133 166.87359226 200.54858172 C164.35716349 200.56124775 161.84095054 200.55960395 159.32449341 200.55795288 C157.52085084 200.56393675 155.71721084 200.57074197 153.91357422 200.57830811 C149.0127244 200.59598947 144.1119444 200.60066438 139.21106577 200.60193968 C135.1205728 200.60383818 131.03009611 200.61119514 126.93960941 200.61828387 C117.28924986 200.63457345 107.63892763 200.63945229 97.98855591 200.63803101 C88.03194472 200.63682932 78.07555022 200.65793527 68.11899388 200.68951833 C59.57195837 200.71566466 51.02499371 200.726399 42.47791851 200.72512019 C37.37259296 200.72461008 32.26745996 200.7303201 27.16217422 200.75147629 C22.36044274 200.77083104 17.55908801 200.77100207 12.75734329 200.75644302 C10.99571686 200.75435041 9.23406702 200.75908273 7.47248077 200.77116394 C5.06586627 200.78659894 2.66055371 200.77732091 0.25396729 200.76190186 C-0.44176167 200.77218898 -1.13749063 200.78247611 -1.85430229 200.79307497 C-6.80477312 200.7230708 -9.65465435 199.43149219 -13.42599487 196.26742554 C-16.03248955 192.84040439 -15.71173048 188.98081979 -15.69342041 184.84143066 C-15.69795152 184.09087273 -15.70248264 183.34031479 -15.70715106 182.56701267 C-15.71981709 180.0505839 -15.71817328 177.53437095 -15.71652222 175.01791382 C-15.72250608 173.21427125 -15.7293113 171.41063125 -15.73687744 169.60699463 C-15.75455881 164.70614481 -15.75923371 159.80536481 -15.76050901 154.90448618 C-15.76240752 150.81399321 -15.76976448 146.72351652 -15.7768532 142.63302982 C-15.79314278 132.98267027 -15.79802163 123.33234804 -15.79660034 113.68197632 C-15.79539865 103.72536513 -15.81650461 93.76897063 -15.84808767 83.81241429 C-15.874234 75.26537878 -15.88496833 66.71841412 -15.88368952 58.17133892 C-15.88317942 53.06601337 -15.88888944 47.96088037 -15.91004562 42.85559464 C-15.92940038 38.05386315 -15.92957141 33.25250842 -15.91501236 28.4507637 C-15.91291975 26.68913727 -15.91765206 24.92748743 -15.92973328 23.16590118 C-15.94516828 20.75928668 -15.93589024 18.35397412 -15.92047119 15.9473877 C-15.93075832 15.25165874 -15.94104544 14.55592978 -15.9516443 13.83911812 C-15.88164014 8.88864729 -14.59006152 6.03876606 -11.42599487 2.26742554 C-7.99897373 -0.33906914 -4.13938913 -0.01831007 0 0 Z M-1.42599487 14.26742554 C-1.42599487 20.53742554 -1.42599487 26.80742554 -1.42599487 33.26742554 C4.84400513 33.26742554 11.11400513 33.26742554 17.57400513 33.26742554 C17.57400513 26.99742554 17.57400513 20.72742554 17.57400513 14.26742554 C11.30400513 14.26742554 5.03400513 14.26742554 -1.42599487 14.26742554 Z M151.57400513 14.26742554 C151.57400513 20.53742554 151.57400513 26.80742554 151.57400513 33.26742554 C157.84400513 33.26742554 164.11400513 33.26742554 170.57400513 33.26742554 C170.57400513 26.99742554 170.57400513 20.72742554 170.57400513 14.26742554 C164.30400513 14.26742554 158.03400513 14.26742554 151.57400513 14.26742554 Z M-1.42599487 52.26742554 C-1.42599487 58.53742554 -1.42599487 64.80742554 -1.42599487 71.26742554 C4.84400513 71.26742554 11.11400513 71.26742554 17.57400513 71.26742554 C17.57400513 64.99742554 17.57400513 58.72742554 17.57400513 52.26742554 C11.30400513 52.26742554 5.03400513 52.26742554 -1.42599487 52.26742554 Z M151.57400513 52.26742554 C151.57400513 58.53742554 151.57400513 64.80742554 151.57400513 71.26742554 C157.84400513 71.26742554 164.11400513 71.26742554 170.57400513 71.26742554 C170.57400513 64.99742554 170.57400513 58.72742554 170.57400513 52.26742554 C164.30400513 52.26742554 158.03400513 52.26742554 151.57400513 52.26742554 Z M58.57400513 71.26742554 C58.57400513 90.40742554 58.57400513 109.54742554 58.57400513 129.26742554 C62.54120048 127.6805474 65.91080508 126.03531883 69.58963013 123.92367554 C70.44343262 123.43527695 70.44343262 123.43527695 71.31448364 122.93701172 C73.15302195 121.88397672 74.98869451 120.8260746 76.82400513 119.76742554 C78.08534626 119.04191177 79.34673971 118.31648897 80.60818481 117.59115601 C83.10721422 116.15314474 85.60476662 114.71261038 88.10134888 113.27035522 C91.12827268 111.52247462 94.16275914 109.78813201 97.19900513 108.05648804 C98.74103048 107.1690902 100.28272987 106.28112553 101.82400513 105.39242554 C102.52557739 104.99474976 103.22714966 104.59707397 103.94998169 104.18734741 C105.52556049 103.27049897 107.05657224 102.27760228 108.57400513 101.26742554 C108.57400513 100.60742554 108.57400513 99.94742554 108.57400513 99.26742554 C107.9015979 98.88110962 107.22919067 98.4947937 106.53640747 98.09677124 C103.92901307 96.59788461 101.32217162 95.0980427 98.71585083 93.59729004 C97.54033359 92.9204174 96.36471548 92.24371989 95.18899536 91.56719971 C88.77584007 87.87552951 82.37653692 84.16432807 76.01931763 80.37680054 C75.01465454 79.77827271 74.00999146 79.17974487 72.97488403 78.56307983 C71.06598464 77.42259197 69.1593392 76.27832162 67.25515747 75.12997437 C66.4013147 74.61974731 65.54747192 74.10952026 64.66775513 73.58383179 C63.92203247 73.13467407 63.17630981 72.68551636 62.4079895 72.2227478 C60.6230223 71.11343192 60.6230223 71.11343192 58.57400513 71.26742554 Z M-1.42599487 90.26742554 C-1.42599487 96.86742554 -1.42599487 103.46742554 -1.42599487 110.26742554 C4.84400513 110.26742554 11.11400513 110.26742554 17.57400513 110.26742554 C17.57400513 103.66742554 17.57400513 97.06742554 17.57400513 90.26742554 C11.30400513 90.26742554 5.03400513 90.26742554 -1.42599487 90.26742554 Z M151.57400513 90.26742554 C151.57400513 96.86742554 151.57400513 103.46742554 151.57400513 110.26742554 C157.84400513 110.26742554 164.11400513 110.26742554 170.57400513 110.26742554 C170.57400513 103.66742554 170.57400513 97.06742554 170.57400513 90.26742554 C164.30400513 90.26742554 158.03400513 90.26742554 151.57400513 90.26742554 Z M-1.42599487 129.26742554 C-1.42599487 135.53742554 -1.42599487 141.80742554 -1.42599487 148.26742554 C4.84400513 148.26742554 11.11400513 148.26742554 17.57400513 148.26742554 C17.57400513 141.99742554 17.57400513 135.72742554 17.57400513 129.26742554 C11.30400513 129.26742554 5.03400513 129.26742554 -1.42599487 129.26742554 Z M151.57400513 129.26742554 C151.57400513 135.53742554 151.57400513 141.80742554 151.57400513 148.26742554 C157.84400513 148.26742554 164.11400513 148.26742554 170.57400513 148.26742554 C170.57400513 141.99742554 170.57400513 135.72742554 170.57400513 129.26742554 C164.30400513 129.26742554 158.03400513 129.26742554 151.57400513 129.26742554 Z M-1.42599487 167.26742554 C-1.42599487 173.53742554 -1.42599487 179.80742554 -1.42599487 186.26742554 C4.84400513 186.26742554 11.11400513 186.26742554 17.57400513 186.26742554 C17.57400513 179.99742554 17.57400513 173.72742554 17.57400513 167.26742554 C11.30400513 167.26742554 5.03400513 167.26742554 -1.42599487 167.26742554 Z M151.57400513 167.26742554 C151.57400513 173.53742554 151.57400513 179.80742554 151.57400513 186.26742554 C157.84400513 186.26742554 164.11400513 186.26742554 170.57400513 186.26742554 C170.57400513 179.99742554 170.57400513 173.72742554 170.57400513 167.26742554 C164.30400513 167.26742554 158.03400513 167.26742554 151.57400513 167.26742554 Z " fill="#7BAAF4" transform="translate(15.425994873046875,-0.267425537109375)"/>
</svg>
